<?xml version='1.0' encoding='utf-8'?>
<svg xmlns="http://www.w3.org/2000/svg" enable-background="new 0 0 3000 3000" version="1.1" viewBox="0 0 3e3 3e3"> <style type="text/css"> .st0{fill:url(#a);} .st1{fill:#00AEEF;} .st2{fill:#010101;} .st3{fill:#F2944C;} .st4{fill:#FCC4A5;} .st5{fill:#B45D27;} .st6{fill:#BB6555;} .st7{fill:#3A2612;} .st8{fill:#1E1A0E;} .st9{fill:#128943;} .st10{fill:#50AD47;} .st11{fill:#DEEBBA;} .st12{fill:#0F0B09;} </style> <linearGradient id="a" x1="1648.1" x2="1751.4" y1="2525.6" y2="2965.8" gradientUnits="userSpaceOnUse"> <stop stop-color="#593814" offset="0"/> <stop stop-color="#593814" stop-opacity="0" offset="1"/> </linearGradient> <path class="st0" d="m2281.8 2811.1c-264.96 277.94-1197 16.68-1198.8-183.43-0.8-86.51 197.96-130.94 468.79-131.14 579.94-0.43 804.95 235.99 730.04 314.57z"/> <polygon class="st1" points="1731.2 312.16 1843.2 110.74 1939.2 188.75"/> <polygon class="st1" points="1645 290.79 1590.1 66.96 1713.6 58.81"/> <polygon class="st1" points="1741.4 381.82 1966.5 332.34 1971.7 455.98"/> <path class="st2" d="m1814.1 1871.3c124.58 16.18 205.14 41.32 205.14 100.18 0 5.2-0.77 10.39-2.29 15.54l-130.21 633.47c-0.7 3.41-1.81 6.7-3.29 9.83-11.59 24.43-74.18 104.13-393.11 104.13-312.99 0-373.87-75.59-385.51-108.09-0.69-1.9-1.23-3.87-1.66-5.89l-130.2-633.43c-1.52-5.16-2.3-10.39-2.3-15.56 0-59.13 81.47-84.37 207.51-100.5 141.22-16.25 510.23-15.53 635.92 0.32zm-586.77 81.23c-102.58 11.63-147.93 25.01-166.2 32.64l125.14 608.8c12.14 10.94 74.37 53.76 304.07 53.76 230.26 0 298.73-43.1 313.67-55.5l124.79-607.06c-18.04-7.52-62.54-19.52-162.21-32.17-96.2-12.21-435.7-12.21-539.26-0.47z"/> <path class="st3" d="m1844.3 2611.8s-37.64 79.34-353.92 79.34c-316.26 0-344.69-79.34-344.69-79.34l-131.62-640.27h961.84l-131.61 640.27z"/> <path class="st4" d="m1014.1 1971.5 131.62 640.27s4.33 12.1 28.48 26.86l-127.35-667.13h-32.75z"/> <path class="st5" d="m1014.1 1971.5c0-41.58 215.33-75.28 480.91-75.28 265.6 0 480.93 33.71 480.93 75.28 0 41.61-215.33 75.31-480.93 75.31-265.59 0-480.91-33.7-480.91-75.31z"/> <path class="st4" d="m1975.9 1971.5c0 41.61-215.33 75.31-480.93 75.31-265.58 0-480.91-33.71-480.91-75.31 6 129.06 957.3 115.24 961.84 0z"/> <path class="st6" d="m1882.9 2016c87.51-17.75 92.09-40.01 92.09-40.01l-130.7 635.78s-11.9 25.1-78.61 47.08c0-0.01 110.14-606.09 117.22-642.85z"/> <path class="st7" d="m1046.8 1998.8c69.85 28.09 244.11 48 448.16 48 204.07 0 378.35-19.91 448.21-48-88.66-84.59-831.25-83.5-896.37 0z"/> <path class="st8" d="m1874.3 2017.8c-87.98 17.69-225.14 29.06-379.34 29.06-91.06 0-176.21-3.97-248.78-10.84-56.91-9.66-98.34-48.93-6.97-64.46 86.95-14.76 483.56-10.87 553.25 4.48 69.68 15.34 104.32 35.49 81.84 41.76z"/> <path class="st2" d="m1771.3 2023.7h-0.49c-18.09-0.27-32.53-15.14-32.27-33.23 0.78-54.22-0.03-116.17-2.43-184.08-0.64-18.07 13.5-33.24 31.58-33.88 17.86-0.66 33.24 13.51 33.88 31.58 2.43 68.98 3.26 132.02 2.46 187.34-0.26 17.91-14.87 32.27-32.73 32.27z"/> <path class="st2" d="m1728 1910.4c-0.5-43.01-1.86-91.14-4.03-143.02-0.61-14.6 6.16-28.54 18.04-37.05 193.34-138.75 184.46-247.87 172.15-398.9-1.09-13.4-2.22-28.3-3.45-44.34-6.44-84.4-15.25-199.94-33.1-296.68-24.1-130.82-51.68-153.78-57.15-157.09-9.11 20.23-7.84 93.03-6.7 157.7 0.58 32.35 1.21 68.58 1.21 108.77v11.07c0.03 125.32 0.06 224.3-38.66 281.51-10.3 15.21-29.02 22.23-46.82 17.67-17.76-4.64-30.7-19.94-32.28-38.23-14.89-171.5-32.13-334.07-45.97-464.73-10.09-95.13-18.07-170.3-21.33-213.77-10.15-135.1-154.81-262.29-259.49-262.29-59.07 0-93.85 43.58-103.41 129.53-13.46 121.3-17.97 391.75-13 782.14 0.22 17.32-9.9 33.11-25.71 40.15-15.8 7.05-34.33 4.01-47.04-7.72-74.77-68.93-113.96-184.43-135.31-398.61-4.27-42.74-14.66-61.16-19.44-66.01-13.25 4.83-48 46.2-65 132.4-33.85 171.38-0.32 374.7 52.24 457.08 51.35 80.42 119.35 124.53 207.91 134.85 21.51 2.51 37.85 20.47 38.34 42.09 2.14 94.25 4.33 174.58 6.06 231.22l-76.11 1.55c-1.25-43.69-3.77-135.68-5.18-195.23-97.03-20.82-186.1-76.9-244.13-167.83-71.54-112.11-99.73-340.74-64.22-520.52 24.27-123.16 83.77-202.73 151.54-202.73 27.02 0 91.29 14.07 104.27 144.52 8.23 82.57 19.06 148.69 33.39 201.32-1.79-303.53 3.31-511.12 15.21-618.26 20.72-186.54 139.48-206.68 189.6-206.68 144.12 0 320.3 160.96 337.29 345.16 6.35 68.89 24.19 248.33 31.16 337.81-3.92-198.95 0-237.79 21.11-257.38 11.15-10.35 29.66-23.78 59.63-23.78 126.47 0.02 155.25 242.03 177.57 534.4 1.21 15.88 2.33 30.62 3.44 43.91 6.03 74.02 12.86 157.94-13.93 239.87-26.54 81.23-89.66 151.62-182.35 221.77 1.14 29.57-0.74 102.69-0.16 129.39l-76.19-5.03z"/> <path class="st2" d="m1225.7 2029.2c-17.24 0-31.68-13.46-32.67-30.89-0.93-16.31-4.57-128.19-8.25-283.89-0.43-18.07 13.88-33.08 31.96-33.5 17.88-1.23 33.07 13.88 33.5 31.97 3.61 152.72 7.31 266.22 8.19 281.72 1.02 18.05-12.79 33.53-30.85 34.55-0.62 0.03-1.26 0.04-1.88 0.04z"/> <path class="st9" d="m1707.7 1393.5c65.83-19.73 63.9-145.75 63.9-293.69 0-208.34-17.25-310.33 48-310.33 105.3 0.02 124.6 377.13 137.79 538.46 13.14 161.33 18.66 289.19-193.15 439.86l-56.54-374.3z"/> <path class="st10" d="m1813.9 796.22c-33.05 6.44-26.74 123.89-15.83 178.53 10.97 54.64 19.22 313.54 6.51 375.81-18.23 89.27-82.7 124.16-82.7 124.16l7.9 57.37s65.18-2.62 100.9-111.32c43.12-131.38 21.6-261.81 18.18-326.83-6.43-122.7-71.38-268.01-34.96-297.72z"/> <path class="st10" d="m1813.9 796.22c48.18 45.28 45.56 144.82 60 192.03 14.39 47.22 20.96 208.68 22.26 274.06 1.33 65.39 19.68 189.87-9.15 242.29-28.82 52.4-90.46 121.53-148.12 142.17l11.26 57.61s136.59-84.48 160.21-172.28c23.57-87.79 18.53-53.42 23.81-128.44 5.32-74.99-6.59-202.18-22.29-319.74-12.49-93.83-26.2-259.46-97.98-287.7z"/> <path class="st11" d="m1707.7 1393.5c65.83-19.73 63.9-145.75 63.9-293.69 0-208.34-17.25-310.33 48-310.33 16.45 0 30.8 9.21 43.35 25.38-57.12-23.42-75.57 13.22-73.41 121.88 2.14 108.64 27.82 437.57-81.84 456.76z"/> <path class="st9" d="m1225.7 1996.5c-2.86-49.89-35.69-1135.5-1.81-1440.7 36.84-331.55 430.78-111.28 449.23 134.31 13.03 174.06 104.29 877.1 98.17 1300.9-5.56 60.09-543.4 44.01-545.59 5.49z"/> <path class="st10" d="m1355 403.84c-84.78 0-121.99 144.96-121.99 220.88 0 75.91 2.81 503.25 0 570.73s-16.87 202.44-16.87 202.44 28.11 357.05 28.11 424.53c0 67.49-0.06 185.78-0.06 185.78 24.16 5.76 41.37 8.68 41.37 8.68s-10.38-239.42-21.65-382.82c-11.21-143.39-19.67-247.02-5.6-355.47 14.06-108.45 19.7-299.61 8.43-431.76-11.25-132.14-26.87-420 88.26-442.99z"/> <path class="st10" d="m1355 403.84c116.59 139.2 102.83 324.23 135.18 526.01 22.55 140.54 6.51 479.58 21.47 623.21 16.57 158.56-19.11 225.13-16.5 477.71 27.34 0.54 47.92-0.51 64.65-0.35 44.17-246.6-4.65-292.46-0.96-683.91 2.93-307.21-26.08-384.54-43.62-557.07-17.55-172.54-48.03-316.79-160.22-385.6z"/> <path class="st10" d="m1355 403.84c127.7 0 220.07 145.15 247.15 342.51 18.44 134.65 47.3 320.54 53.9 361.89 16.9 106.07-19.04 232.34-19.04 328.6 0 96.25 1.06 221.11 8.33 296.01 7.29 74.91 9.9 238.71 1.57 293.46 45.46-4.8 73.27-9.43 73.27-9.43 8.78-108.22-18.52-262.45-24.79-381.07-6.24-118.63 8.84-315.07-3.63-420.72-6.51-55.04-17.01-130.31-30.35-299.72-9.39-118.62-14.22-173.32-57.9-308.58-32.46-100.5-101.3-203.78-248.51-202.95z"/> <path class="st10" d="m1355 403.84c-69.45 55.5-45.22 374.33-19.51 569.51 17.73 134.7 12.44 417.36 19.51 504.06 8.51 104.32 7.53 256.98 12.47 343.71 4.94 86.72-12.47 203.48-12.47 203.48 39.22 5.49 60.92 3.82 60.92 3.82s-9.69-112.99-1.18-253.37c8.46-140.36-42.61-173.05-23.65-358.07 16.85-164.01-27.23-281.43-23.3-422.08 6.51-234.18-56.11-516.96-12.79-591.06z"/> <path class="st11" d="m1225.7 1996.5c-2.86-49.89-35.69-1135.5-1.81-1440.7 24.66-221.72 208.96-196.67 333.89-82.29-136.61-53.22-284.95-73.33-292.11 91.29-7.16 164.6-39.97 1431.7-39.97 1431.7z"/> <path class="st9" d="m1339.2 1674.6c-72.5 9.82-246.71 29.28-361.97-151.3-62.35-97.68-92.52-315.27-58.25-488.79 35.83-181.62 152.88-235.6 170.14-62.3 27.01 270.94 84.62 407.79 250.09 425.98 65.79 72.41 72.51 266.63-0.01 276.41z"/> <path class="st12" d="m1454.6 1027.2c0 16.17-13.11 29.25-29.26 29.25-16.17 0-29.25-13.08-29.25-29.25s13.08-29.26 29.25-29.26c16.15 0 29.26 13.1 29.26 29.26z"/> <path class="st12" d="m1632.8 1017.5c0 16.15-13.11 29.25-29.26 29.25-16.17 0-29.25-13.1-29.25-29.25 0-16.17 13.08-29.26 29.25-29.26 16.15 0 29.26 13.1 29.26 29.26z"/> <path class="st10" d="m1019 877.87c-82.03 34.92-66.41 244.67-72.13 301.85s12.79 213.04 57.97 279.58c50.21 73.91 43.25 138.36 211.33 183.17 39.07 10.41 92.28-1.39 92.28-1.39 11.45-24.79-11-40.04-11-40.04-44.28 0-97.27 6.3-177.36-68.06-80.05-74.34-132.08-196.25-137.58-301.45-5.31-101.86-28.48-315.51 36.49-353.66z"/> <path class="st10" d="m1019 877.87c29.47 50.35 0 287.83 24.85 412.44 8.71 43.65 66.58 122.36 124.13 154.72 57.57 32.38 100.92 62.84 160.11 44.98 3.6-48.58-16.39-59.37-16.39-59.37s-69.21 5.41-137.95-37.77c-68.74-43.19-80.45-79.79-100.23-126.56-19.77-46.77 12.24-350.67-54.52-388.44z"/> <path class="st11" d="m1216.7 1677.9c-77.55-9.05-169.4-44.88-239.47-154.66-62.35-97.68-92.52-315.27-58.25-488.79 29.92-151.65 116.46-214.3 154.24-129.99-47.87-37.63-105.94 36.89-121.32 142.27-15.37 105.38-39.13 572.87 264.8 631.17z"/> <path class="st12" d="m1447.3 1144.5c11.85 92.09 26.77 169.75 91.5 165.68 71.8-4.52 66.1-108.43 63.16-176.76-18.74 19.02-124.25 26.94-154.66 11.08z"/> </svg>